HIERARCHY
ROOT Hips
{
  OFFSET 0.0 0.0 0.0
  CHANNELS 6 Xposition Yposition Zposition Zrotation Yrotation Xrotation
  JOINT LHipJoint
  {
    OFFSET 0.0 0.0 0.0
    CHANNELS 3 Zrotation Yrotation Xrotation
    JOINT LeftUpLeg
    {
      OFFSET 1.363059998 -1.794630051 0.839290023
      CHANNELS 3 Zrotation Yrotation Xrotation
      JOINT LeftLeg
      {
        OFFSET 2.448110104 -6.726130009 0.0
        CHANNELS 3 Zrotation Yrotation Xrotation
        JOINT LeftFoot
        {
          OFFSET 2.562200069 -7.039589882 0.0
          CHANNELS 3 Zrotation Yrotation Xrotation
          JOINT LeftToeBase
          {
            OFFSET 0.157639995 -0.433109999 2.322550058
            CHANNELS 3 Zrotation Yrotation Xrotation
            End Site
            {
              OFFSET 0.0 -0.0 1.189659953
            }
          }
        }
      }
    }
  }
  JOINT RHipJoint
  {
    OFFSET 0.0 0.0 0.0
    CHANNELS 3 Zrotation Yrotation Xrotation
    JOINT RightUpLeg
    {
      OFFSET -1.305520058 -1.794630051 0.839290023
      CHANNELS 3 Zrotation Yrotation Xrotation
      JOINT RightLeg
      {
        OFFSET -2.54253006 -6.985549927 0.0
        CHANNELS 3 Zrotation Yrotation Xrotation
        JOINT RightFoot
        {
          OFFSET -2.568259954 -7.056230068 0.0
          CHANNELS 3 Zrotation Yrotation Xrotation
          JOINT RightToeBase
          {
            OFFSET -0.164729998 -0.452589989 2.363149881
            CHANNELS 3 Zrotation Yrotation Xrotation
            End Site
            {
              OFFSET -0.0 -0.0 1.21081996
            }
          }
        }
      }
    }
  }
  JOINT LowerBack
  {
    OFFSET 0.0 0.0 0.0
    CHANNELS 3 Zrotation Yrotation Xrotation
    JOINT Spine
    {
      OFFSET 0.028270001 2.035589933 -0.193379998
      CHANNELS 3 Zrotation Yrotation Xrotation
      JOINT Spine1
      {
        OFFSET 0.05672 2.04885006 -0.042750001
        CHANNELS 3 Zrotation Yrotation Xrotation
        JOINT Neck
        {
          OFFSET 0.0 0.0 0.0
          CHANNELS 3 Zrotation Yrotation Xrotation
          JOINT Neck1
          {
            OFFSET -0.054170001 1.74624002 0.172020003
            CHANNELS 3 Zrotation Yrotation Xrotation
            JOINT Head
            {
              OFFSET 0.10407 1.761360049 -0.123970002
              CHANNELS 3 Zrotation Yrotation Xrotation
              End Site
              {
                OFFSET 0.0372 1.770439982 -0.062410001
              }
            }
          }
        }
        JOINT LeftShoulder
        {
          OFFSET 0.0 0.0 0.0
          CHANNELS 3 Zrotation Yrotation Xrotation
          JOINT LeftArm
          {
            OFFSET 3.362410069 1.200889945 -0.311210006
            CHANNELS 3 Zrotation Yrotation Xrotation
            JOINT LeftForeArm
            {
              OFFSET 4.982999802 -0.0 -0.0
              CHANNELS 3 Zrotation Yrotation Xrotation
              JOINT LeftHand
              {
                OFFSET 3.483560085 -0.0 -0.0
                CHANNELS 3 Zrotation Yrotation Xrotation
                JOINT LeftFingerBase
                {
                  OFFSET 0.0 0.0 0.0
                  CHANNELS 3 Zrotation Yrotation Xrotation
                  JOINT LeftHandIndex1
                  {
                    OFFSET 0.715260029 -0.0 -0.0
                    CHANNELS 3 Zrotation Yrotation Xrotation
                    End Site
                    {
                      OFFSET 0.576659977 -0.0 -0.0
                    }
                  }
                }
                JOINT LThumb
                {
                  OFFSET 0.0 0.0 0.0
                  CHANNELS 3 Zrotation Yrotation Xrotation
                  End Site
                  {
                    OFFSET 0.585470021 -0.0 0.585470021
                  }
                }
              }
            }
          }
        }
        JOINT RightShoulder
        {
          OFFSET 0.0 0.0 0.0
          CHANNELS 3 Zrotation Yrotation Xrotation
          JOINT RightArm
          {
            OFFSET -3.136600018 1.374050021 -0.404650003
            CHANNELS 3 Zrotation Yrotation Xrotation
            JOINT RightForeArm
            {
              OFFSET -5.241899967 -0.0 -0.0
              CHANNELS 3 Zrotation Yrotation Xrotation
              JOINT RightHand
              {
                OFFSET -3.444169998 -0.0 -0.0
                CHANNELS 3 Zrotation Yrotation Xrotation
                JOINT RightFingerBase
                {
                  OFFSET 0.0 0.0 0.0
                  CHANNELS 3 Zrotation Yrotation Xrotation
                  JOINT RightHandIndex1
                  {
                    OFFSET -0.622529984 -0.0 -0.0
                    CHANNELS 3 Zrotation Yrotation Xrotation
                    End Site
                    {
                      OFFSET -0.501900017 -0.0 -0.0
                    }
                  }
                }
                JOINT RThumb
                {
                  OFFSET 0.0 0.0 0.0
                  CHANNELS 3 Zrotation Yrotation Xrotation
                  End Site
                  {
                    OFFSET -0.509559989 -0.0 0.509559989
                  }
                }
              }
            }
          }
        }
      }
    }
  }
}
MOTION
Frames: 8
Frame Time: 0.0083333
-3.760237217 30.302900314 55.816047668 -99.726264954 84.757194519 -65.860969543 0.0 -0.0 0.0 -16.304302216 -2.982599258 -35.935798645 4.053200245 12.230797768 36.553501129 3.203999996 -16.022298813 -32.644794464 0.028100008 -1.082599878 -2.97619915 0.0 -0.0 0.0 23.283594131 13.48049736 -31.137102127 -4.51650095 -12.817700386 38.689704895 -3.300800323 4.641499996 -33.394405365 -0.016099997 -0.81979996 2.253199816 3.773999214 -0.11109966 24.9237957 -0.471400023 1.462499976 10.132602692 -3.062000275 1.12650001 -2.55880022 -8.991001129 2.252501249 -23.222002029 10.565500259 3.810498953 18.887701035 5.767799854 2.399399757 9.367298126 0.0 -0.0 0.0 -73.382507324 -23.153694153 53.512001038 48.543109894 -52.390708923 -25.015304565 0.0 -0.0 37.979404449 51.277603149 -24.1352005 -27.020299911 -7.125 0.0 0.0 12.781902313 -4.854299545 -14.161903381 0.0 -0.0 0.0 79.057617188 21.843395233 44.148002625 -51.267795563 53.494194031 -27.190000534 0.0 -0.0 27.994800568 -58.072795868 1.058300018 -1.697900295 7.125 -0.0 0.0 -23.737606049 -27.594303131 -10.937198639 
-3.775737286 30.298799515 55.817947388 -98.040214539 84.713981628 -64.140792847 0.0 -0.0 0.0 -16.410100937 -2.808401108 -36.170307159 4.030900002 12.201401711 36.448204041 3.14929986 -15.619799614 -32.323596954 0.044300001 -1.358000159 -3.734400749 0.0 -0.0 0.0 23.388998032 12.91319561 -31.730897903 -4.577701569 -12.891901016 38.965003967 -3.219299793 4.647799969 -32.958087921 -0.001799999 -0.272799969 0.749599934 4.080599785 -0.047400348 24.973003387 -0.770799875 1.600099921 10.174298286 -3.598299503 1.21179986 -2.503799438 -8.602397919 2.096500158 -22.897497177 10.962803841 3.354999304 19.06020546 5.788300991 2.262100458 9.4229002 0.0 -0.0 0.0 -73.241897583 -23.781002045 53.534099579 47.913383484 -52.118499756 -24.51738739 0.0 -0.0 38.551998138 51.731697083 -24.005102158 -27.280496597 -7.125 0.0 0.0 13.06789875 -4.922400475 -14.509599686 0.0 -0.0 0.0 79.867797852 22.509393692 43.875305176 -50.451702118 53.176105499 -26.535308838 0.0 -0.0 28.328702927 -58.246906281 0.876999915 -1.416700244 7.125 -0.0 0.0 -23.936004639 -27.894199371 -10.857298851 
-3.781937122 30.298299789 55.812347412 -96.768814087 84.75969696 -62.779075623 0.0 -0.0 0.0 -16.235998154 -4.037096977 -35.842697144 4.019498348 12.186300278 36.394088745 3.13269949 -14.633600235 -32.138801575 0.0134 -0.748199999 -2.056199551 0.0 -0.0 0.0 22.993001938 13.27299881 -31.870191574 -4.620499611 -12.943300247 39.15650177 -3.179300308 6.550301075 -32.468616486 -0.091500007 -1.95070076 5.369400978 4.433400631 -0.001600292 24.953800201 -1.133699775 1.721999764 10.24750042 -4.224100113 1.296500087 -2.374300003 -7.691400051 1.975399852 -22.83710289 11.02270031 2.862200499 19.305597305 5.607301235 2.111700058 9.572799683 0.0 -0.0 0.0 -73.19619751 -24.475597382 53.34419632 47.007221222 -51.714817047 -23.804115295 0.0 -0.0 38.97869873 51.815002441 -24.845794678 -28.112808228 -7.125 0.0 0.0 12.877300262 -6.035900593 -14.514102936 0.0 -0.0 0.0 80.310600281 22.774803162 43.414699554 -50.33530426 53.129810333 -26.442205429 0.0 -0.0 28.410800934 -58.4416008 0.619899988 -1.009199977 7.125 -0.0 0.0 -24.183300018 -28.3268013 -10.715201378 
-3.78323698 30.303800583 55.805549622 -97.437278748 84.692382812 -63.684013367 0.0 -0.0 0.0 -15.824398994 -5.306400299 -35.142498016 4.014300346 12.179402351 36.369602203 3.124299526 -13.940799713 -32.038097382 0.0005 -0.141399994 -0.388599992 0.0 -0.0 0.0 22.953699112 13.22710228 -31.745203018 -4.651200294 -12.979903221 39.293304443 -3.148999691 7.117900848 -32.243099213 -0.134800017 -2.366499424 6.519599438 3.88689971 -0.701799989 25.152399063 -0.548900127 0.779500186 10.500200272 -3.031899214 0.824499786 -2.312299728 -8.348100662 2.417499065 -22.030200958 9.798801422 3.891999006 19.197998047 5.367500305 2.37040019 9.286501884 0.0 -0.0 0.0 -74.351997375 -24.198301315 50.714393616 46.731510162 -51.589103699 -23.587810516 0.0 -0.0 39.359401703 51.469787598 -24.998102188 -27.954494476 -7.125 0.0 0.0 12.645600319 -6.046699524 -14.242199898 0.0 -0.0 0.0 79.170906067 24.050092697 45.762302399 -49.867900848 52.942092896 -26.068706512 0.0 -0.0 28.048101425 -58.445999146 0.407599896 -0.663699985 7.125 -0.0 0.0 -24.279001236 -28.696298599 -10.528701782 
-3.793137074 30.300100327 55.795150757 -97.807342529 84.730766296 -64.016960144 0.0 -0.0 0.0 -16.02350235 -4.759200096 -35.596698761 4.026000023 12.194900513 36.425003052 2.993900061 -14.782003403 -31.438610077 0.0006 -0.162099987 -0.445499986 0.0 -0.0 0.0 22.918302536 13.394400597 -31.954500198 -4.66300106 -12.993904114 39.345600128 -3.09449935 5.411598682 -32.159496307 -0.028799996 -1.094899774 3.009899378 4.303399563 -0.70969969 25.265497208 -0.784499943 0.84190011 10.322601318 -3.548300028 0.857599914 -2.542800188 -7.353300571 2.221399546 -20.090305328 9.203902245 3.329198837 18.763900757 4.839600086 2.092299938 8.882497787 0.0 -0.0 0.0 -73.851791382 -24.248300552 51.40240097 46.873382568 -51.653900146 -23.69908905 0.0 -0.0 39.274604797 51.49540329 -24.275102615 -27.328203201 -7.125 0.0 0.0 12.862797737 -5.144400597 -14.315800667 0.0 -0.0 0.0 79.41860199 23.856098175 45.39390564 -49.75018692 52.894195557 -25.974796295 0.0 -0.0 28.122497559 -58.469604492 0.442799956 -0.721700072 7.125 -0.0 0.0 -24.280395508 -28.633598328 -10.56969738 
-3.817037106 30.263399124 55.774051666 -95.947738647 84.770179749 -62.06816864 0.0 -0.0 0.0 -16.281301498 -3.845999002 -36.225704193 4.055600166 12.234000206 36.564910889 2.797599316 -16.21099472 -30.595106125 0.001 0.201700002 0.554200113 0.0 -0.0 0.0 22.813604355 13.671304703 -32.054912567 -4.656500816 -12.98620224 39.316699982 -3.002599716 5.138700008 -31.694499969 -0.025599999 -1.033500075 2.841100216 4.367799759 -0.612899721 25.250997543 -1.028100371 0.957900107 10.262802124 -3.881899595 0.916499674 -2.583299875 -6.495500088 1.977500081 -18.746700287 8.777197838 2.772399426 18.524196625 4.434100628 1.831400037 8.636400223 0.0 -0.0 0.0 -73.514900208 -24.519193649 51.565090179 46.693908691 -51.571811676 -23.558401108 0.0 -0.0 39.368797302 51.885398865 -24.383102417 -27.754800797 -7.125 0.0 0.0 13.046398163 -5.485400677 -14.601600647 0.0 -0.0 0.0 79.720802307 23.967704773 45.165802002 -49.600494385 52.833095551 -25.855493546 0.0 -0.0 28.191902161 -58.45659256 0.392200053 -0.638899922 7.125 -0.0 0.0 -24.293304443 -28.722503662 -10.519299507 
-3.826837063 30.263599396 55.764350891 -97.355018616 84.177955627 -63.710918427 0.0 -0.0 0.0 -15.480398178 -3.956696987 -36.040096283 4.095302105 12.286202431 36.751903534 2.785899401 -15.866101265 -30.48409462 0.0005 0.143399999 0.393900037 0.0 -0.0 0.0 23.528701782 13.748903275 -31.752300262 -4.637400627 -12.963400841 39.231700897 -2.911299467 5.974698544 -31.06700325 -0.092399985 -1.960700393 5.396901131 4.790299416 -0.7044999 25.656602859 -0.91809994 0.976200223 10.322000504 -4.018400192 0.936499953 -2.702100039 -6.211100578 1.832100034 -17.834997177 8.476102829 2.515199661 18.528003693 4.229000092 1.686999798 8.506098747 0.0 -0.0 0.0 -72.523902893 -24.383491516 51.880699158 47.828804016 -52.081401825 -24.450601578 0.0 -0.0 38.343200684 51.667900085 -24.150505066 -27.359701157 -7.125 0.0 0.0 12.992300034 -5.074999332 -14.453000069 0.0 -0.0 0.0 79.764213562 24.325899124 45.386009216 -49.489109039 52.787403107 -25.766710281 0.0 -0.0 28.210199356 -58.484397888 -0.08860001 0.144400001 7.125 -0.0 0.0 -24.526597977 -29.558200836 -10.096101761 
-3.837037563 30.270700455 55.777851105 -95.969100952 83.625511169 -62.48910141 0.0 -0.0 0.0 -14.961601257 -3.417099714 -36.219898224 4.1510005 12.358699799 37.012802124 2.681199789 -16.430597305 -30.017599106 0.006599999 0.52639997 1.446499944 0.0 -0.0 0.0 24.060504913 14.271901131 -31.411203384 -4.599201202 -12.91779995 39.061401367 -2.831500053 5.468700409 -30.684099197 -0.083399996 -1.863099933 5.127601147 5.254500866 -0.59859997 26.030601501 -0.918299973 1.243100166 10.343499184 -4.366900444 1.077300072 -2.814100027 -6.731398582 1.531099796 -17.128599167 9.073700905 2.087299347 18.699903488 4.463399887 1.50639987 8.457201004 0.0 -0.0 0.0 -71.845802307 -24.6001091 52.448501587 48.799705505 -52.499801636 -25.218805313 0.0 -0.0 37.829101562 51.05059433 -23.243198395 -26.022302628 -7.125 0.0 0.0 12.901801109 -3.598399878 -14.037600517 0.0 -0.0 0.0 79.803207397 24.502500534 45.130199432 -49.58039856 52.824794769 -25.83939743 0.0 -0.0 28.213102341 -58.5041008 0.0149 -0.024300002 7.125 -0.0 0.0 -24.494501114 -29.37720108 -10.197998047 
